<svg width="21" height="20" viewBox="0 0 21 20" fill="none" xmlns="http://www.w3.org/2000/svg">
<g clip-path="url(#clip0_1390_2348)">
<path d="M4.93242 12.0863L4.23625 14.6852L1.69176 14.739C0.931328 13.3286 0.5 11.7149 0.5 10C0.5 8.34179 0.903281 6.77804 1.61812 5.40112H1.61867L3.88398 5.81644L4.87633 8.06815C4.66863 8.67366 4.55543 9.32366 4.55543 10C4.55551 10.7341 4.68848 11.4374 4.93242 12.0863Z" fill="#FBBB00"/>
<path d="M20.3253 8.13184C20.4401 8.73676 20.5 9.36148 20.5 9.99996C20.5 10.7159 20.4247 11.4143 20.2813 12.0879C19.7945 14.3802 18.5225 16.3818 16.7605 17.7983L16.7599 17.7978L13.9066 17.6522L13.5028 15.1313C14.672 14.4456 15.5858 13.3725 16.0671 12.0879H10.7198V8.13184H16.1451H20.3253Z" fill="#518EF8"/>
<path d="M16.7599 17.7977L16.7604 17.7983C15.0467 19.1757 12.8698 19.9999 10.5 19.9999C6.69177 19.9999 3.3808 17.8713 1.69177 14.7389L4.93244 12.0862C5.77693 14.34 7.95111 15.9444 10.5 15.9444C11.5956 15.9444 12.622 15.6483 13.5027 15.1312L16.7599 17.7977Z" fill="#28B446"/>
<path d="M16.883 2.30219L13.6434 4.95437C12.7319 4.38461 11.6544 4.05547 10.5 4.05547C7.89341 4.05547 5.67856 5.73348 4.87638 8.06812L1.61868 5.40109H1.61813C3.28243 2.1923 6.63517 0 10.5 0C12.9264 0 15.1511 0.864297 16.883 2.30219Z" fill="#F14336"/>
</g>
<defs>
<clipPath id="clip0_1390_2348">
<rect width="20" height="20" fill="white" transform="translate(0.5)"/>
</clipPath>
</defs>
</svg>
